<svg version="1.2" xmlns="http://www.w3.org/2000/svg" viewBox="0 0 1065 909" width="150" height="128">
	<title>My_heat</title>
	<style>
		.s0 { fill: #fefefe } 
		.s1 { fill: #80160e } 
		.s2 { fill: #9a9a9a } 
		.s3 { fill: #1e1e1f } 
		.s4 { fill: #1e1d1e } 
		.s5 { fill: #1f1f20 } 
		.s6 { fill: #4c4c4c } 
		.s7 { fill: #fdfdfd } 
		.s8 { fill: #811a12 } 
		.s9 { fill: #821b14 } 
		.s10 { fill: #811911 } 
		.s11 { fill: #811810 } 
		.s12 { fill: #811811 } 
		.s13 { fill: #801710 } 
		.s14 { fill: #821a12 } 
		.s15 { fill: #821b13 } 
		.s16 { fill: #fdfcfc } 
		.s17 { fill: #fdfdfc } 
		.s18 { fill: #842019 } 
		.s19 { fill: #821c15 } 
	</style>
	<path class="s0" d="m-216-297c1020.4 0 2040.7 0 3092 0 0 495 0 990 0 1500-1020.4 0-2040.7 0-3092 0 0-495 0-990 0-1500z"/>
	<path class="s1" d="m355.5 12.8q1.2 0 2.5 0 4 0 8.1-0.1 1.3 0 2.7 0c15.9 0.1 31.5 1 47.2 3.3q1.4 0.2 2.8 0.4c7.8 1.2 15.5 2.6 23.2 4.6q2.7 0.6 5.4 1.1c15.7 3.7 31.3 8.7 45.7 16q3.2 1.5 6.4 3c27.5 12.6 51.8 30 74.5 49.9q0.8 0.7 1.6 1.4c39.9 35.3 77.6 85.6 91.4 137.6q0 1.5 0 3 1.4-0.2 2.8-0.4c27-3.7 55.3-2.5 82.2 1.4q1.4 0.2 2.8 0.4c7.1 1.1 14.2 2.3 21.1 4.1 2.2 0.5 4.3 1 6.5 1.4 4.8 1.1 9.4 2.5 14 4q2.6 0.9 5.1 1.7 1.2 0.3 2.4 0.7c2.4 0.8 4.9 1.5 7.3 2.1 6.2 1.9 11.9 4.8 17.7 7.6q3.3 1.5 6.6 3c17.3 7.9 33.3 17.6 48.5 29q0.8 0.6 1.6 1.2c33.2 24.8 62.1 54.9 84.4 89.8 0.6 0.9 0.6 0.9 1.1 1.8 16.7 26.4 30.8 55.7 37.9 86.2q0.6 2.2 1.1 4.4c5.7 22.1 9.1 45.3 9 68.1q0 1.6 0 3.2 0 3.4 0 6.7 0 5.1 0 10.1c0 15.6-0.7 30.8-2.9 46.3q-0.3 1.8-0.5 3.6c-2.1 14-5.1 27.4-9.5 40.9q-1.7 5.2-3.2 10.4c-12.7 41-36.3 78.6-65 110.3q-0.7 0.8-1.5 1.7c-9.9 11-20.1 21.9-31.5 31.3q-0.8 0.7-1.7 1.4c-33.3 27.8-71.9 51-114.3 61.6q-1.4 0.4-2.9 0.7c-26.8 6.6-53.4 10.7-81 10.5q-4.2 0-8.3 0-2.7 0-5.3 0c-1.3 0-1.3 0-2.5 0-5.8-0.1-5.8-0.1-8-1.2q-2.3-0.3-4.7-0.4c-55.5-3.8-108.9-24.1-153.3-57.6-0.9-0.7-0.9-0.7-1.8-1.3-7.5-5.7-14.6-11.8-21.5-18.2-2.2-2-4.3-3.9-6.5-5.7-9.4-8.3-18.4-17.3-26.1-27.1-1.7-2.3-3.6-4.4-5.5-6.5-3.5-4.1-6.8-8.3-9.9-12.8-0.9-1.1-0.9-1.1-1.7-2.4q-1.7-2.4-3.4-4.8-1.5-2-2.9-4.1c-16.6-23.2-29-50-37.7-77.1q-1.6 0.1-3.2 0.2c-11.2 0.7-22.3 1-33.6 0.9q-4.1 0-8.3 0-2.7 0-5.4 0-1.2 0-2.5 0c-5.8 0-5.8 0-8-1.1q-4.1-0.2-8.2-0.4c-7.3-0.3-14.1-1.3-21.3-2.9-3.2-0.6-6.2-1.1-9.4-1.4-46.8-7.1-93.1-31.2-129.1-61.3-1.5-1.2-1.5-1.2-3-2.5-15.3-12.7-30.5-26.1-42.8-41.8-1.8-2.2-3.7-4.3-5.6-6.5-3.6-4.1-6.8-8.3-9.9-12.8q-0.9-1.1-1.7-2.4-1.7-2.4-3.4-4.8-1.5-2-2.9-4.1c-19.8-27.7-35.4-61.8-42.9-95q-0.7-3.2-1.5-6.4-0.3-1.5-0.7-3-0.7-3.3-1.7-6.4c-6.3-22.4-6.2-47.1-6.2-70.2q0.1-4.9 0-9.9c0-18.2 1-36.3 4.4-54.3q0.3-1.6 0.7-3.3c5.6-28.4 14.5-56.2 28.2-81.8q1.6-2.9 3.1-5.9c9.4-18.7 21.7-35.8 34.9-51.9 1.1-1.4 1.1-1.4 2.3-2.8 6.6-8 13.6-15.4 20.9-22.6q2.7-2.8 5.4-5.5c6.8-6.8 13.8-13.2 21.4-19.1q1.1-0.9 2.2-1.7c24.7-19.5 51.4-35.3 81-46.2q3.1-1.2 6.2-2.6c3.7-1.5 7.5-2.8 11.3-3.9 1.1-0.4 1.1-0.4 2.3-0.7 11.7-3.3 23.8-5.7 35.8-7.5 2.2-0.3 2.2-0.3 4.2-1.4q2.5-0.3 5.1-0.5 1.5-0.1 3-0.2c1.6-0.2 1.6-0.2 3.2-0.3q3.1-0.2 6.3-0.5 1.3-0.1 2.8-0.2c2.6-0.2 2.6-0.2 4.9-0.8 3.7-0.7 7.4-0.7 11.2-0.7z"/>
	<path class="s2" d="m355.5 12.8q1.2 0 2.5 0 4 0 8.1-0.1 1.3 0 2.7 0c15.9 0.1 31.5 1 47.2 3.3q1.4 0.2 2.8 0.4c7.8 1.2 15.5 2.6 23.2 4.6q2.7 0.6 5.4 1.1c15.7 3.7 31.3 8.7 45.7 16q3.2 1.5 6.4 3c27.5 12.6 51.8 30 74.5 49.9q0.8 0.7 1.6 1.4c39.9 35.3 77.6 85.6 91.4 137.6q0 1.5 0 3 2 0.5 4 1-1.7 0.1-3.4 0.2-2.3 0.1-4.5 0.2-1.1 0.1-2.2 0.2c-4.1 0.1-4.1 0.1-7.9 1.4q-2.7 0.4-5.5 0.8c-13.3 2-26.1 5.2-39 9.1q-1.6 0.5-3.3 1c-6 1.9-11.5 4.1-17.1 7-2.5 1.3-5.2 2.3-7.9 3.2-15 5.6-29.1 13.9-42.2 22.9q-1 0.7-2.1 1.4c-7.9 5.5-15.7 11-22.9 17.3-2 1.3-2 1.3-6 1.3q-0.3-1.5-0.7-3.1-1.2-5.7-2.5-11.5-0.5-2.4-1.1-4.9c-2-9.4-4.2-18.7-6.8-27.9-1.5-5.9-2.8-11.9-4.2-17.8q-0.6-3.1-1.3-6.1-0.5-2.1-1-4.3-2.6-11.8-5.3-23.7-0.3-1.1-0.5-2.2-3.8-16.6-7.7-33.1c-0.3-1.1-0.3-1.1-0.5-2.2q-2.6-10.9-5.2-21.7-0.5-1.8-0.9-3.6-0.8-3.2-1.6-6.4-0.3-1.4-0.7-2.8-0.3-1.2-0.6-2.5c-0.4-2.2-0.4-2.2-0.4-6.2q-2 0-4 0-0.2 1.1-0.3 2.2c-0.7 3-1.8 5.5-3.1 8.3q-0.8 1.6-1.5 3.2-0.9 1.8-1.7 3.6-1.8 3.8-3.6 7.6c-0.5 1-0.5 1-0.9 2-3.5 7.4-6.9 14.8-10.2 22.2q-1.9 4.2-3.8 8.3c-0.5 1.1-0.5 1.1-1 2.2q-5.4 11.9-10.8 23.8-0.5 1.1-1 2.2-2.6 5.5-5.1 11-4.5 9.9-9 19.7-2.5 5.5-5 11-1 2.1-2 4.3-2 4.4-4 8.8-0.5 1.1-1 2.2-1 2.2-2 4.3-2.5 5.5-5 10.9-4.6 10.1-9.2 20.1-2.1 4.6-4.2 9.2-0.9 2.1-1.9 4.3-0.5 1-0.9 2-0.5 0.9-0.9 1.9-0.9 2-1.8 4c-1.8 3.9-3.6 7.7-5.6 11.4-7.9 14.9-8.8 27.7-8.5 44.4q0.1 3.8 0.1 7.6 0 9.8 0.2 19.7 0.1 9.1 0.2 18.2 0.2 20.7 0.5 41.4 0.4-0.8 0.8-1.7 4.3-8.8 8.7-17.6 1.6-3.3 3.2-6.6c5.6-11.6 11.3-23.1 17-34.6 4.1-8.1 8-16.2 11.9-24.3 4-8.5 8.2-16.8 12.4-25.2 5.6-11.2 11.1-22.4 16.5-33.7q2.5-5.3 5.1-10.5c6.7-13.5 11.7-27.4 16.4-41.8q0.5 0 1 0 0.2 1.4 0.3 2.8c2.4 19.2 5.4 38 10.1 56.7q0.8 3.3 1.6 6.5 0.4 1.6 0.8 3.2c1.7 7.5 1.7 7.5 0.4 10.9-1.5 2-3 3.6-4.7 5.3q-1.8 2.1-3.6 4.1-1 1.1-2 2.2c-3.4 4.1-6.3 8.5-9.2 13-0.9 1.3-0.9 1.3-1.8 2.7q-2.5 3.8-4.9 7.6-0.6 0.9-1.2 1.9-3.6 5.5-6.8 11.1-0.5 0.8-1 1.7c-5.6 9.7-10.1 19.8-14.3 30.2q-0.4 0.9-0.8 1.8c-8.4 20.5-14.6 41.3-18.7 63.1q-0.3 1.4-0.6 3c-3.5 19.3-3.9 38.7-3.9 58.3q0 5.8-0.1 11.7c0 15 0.9 29.4 3.4 44.2q0.4 2.3 0.7 4.6c2.5 15.3 6 30.5 10.3 45.4-12.3 1.7-24.4 2.3-36.8 2.2q-4.1 0-8.3 0-2.7 0-5.4 0c-1.2 0-1.2 0-2.5 0-5.8-0.1-5.8-0.1-8-1.2q-4.1-0.2-8.2-0.4c-7.3-0.3-14.1-1.3-21.3-2.9-3.2-0.6-6.2-1.1-9.4-1.4-46.8-7.1-93.1-31.2-129.1-61.3-1.5-1.2-1.5-1.2-3-2.5-15.3-12.7-30.5-26.1-42.8-41.8-1.8-2.2-3.7-4.3-5.6-6.5-3.6-4.1-6.8-8.3-9.9-12.8q-0.9-1.1-1.7-2.4-1.7-2.4-3.4-4.8-1.5-2-2.9-4.1c-19.8-27.7-35.4-61.8-42.9-95q-0.7-3.2-1.5-6.4-0.3-1.5-0.7-3-0.7-3.3-1.7-6.4c-6.3-22.4-6.2-47.1-6.2-70.2q0.1-4.9 0-9.9c0-18.2 1-36.3 4.4-54.3q0.3-1.6 0.7-3.3c5.6-28.4 14.5-56.2 28.2-81.8q1.6-2.9 3.1-5.9c9.4-18.7 21.7-35.8 34.9-51.9 1.1-1.4 1.1-1.4 2.3-2.8 6.6-8 13.6-15.4 20.9-22.6q2.7-2.8 5.4-5.5c6.8-6.8 13.8-13.2 21.4-19.1q1.1-0.9 2.2-1.7c24.7-19.5 51.4-35.3 81-46.2q3.1-1.2 6.2-2.6c3.7-1.5 7.5-2.8 11.3-3.9 1.1-0.4 1.1-0.4 2.3-0.7 11.7-3.3 23.8-5.7 35.8-7.5 2.2-0.3 2.2-0.3 4.2-1.4q2.5-0.3 5.1-0.5 1.5-0.1 3-0.2c1.6-0.2 1.6-0.2 3.2-0.3q3.1-0.2 6.3-0.5 1.3-0.1 2.8-0.2c2.6-0.2 2.6-0.2 4.9-0.8 3.7-0.7 7.4-0.7 11.2-0.7z"/>
	<path class="s3" d="m1336 201c1 0.5 1 0.5 2 1 2.2-1.2 4.3-2.4 6.4-3.8 13.3-7.8 28.7-9.9 43.9-6.3 16.9 5.2 29.3 15.6 37.7 31.1 3.7 7.9 5.2 14.9 5.1 23.6 0 1.2 0 1.2 0 2.3q0 3.7 0 7.5 0 2.7 0 5.4 0 7.3 0 14.6 0 7.6 0 15.2 0 14.5 0 28.9 0 16.4 0 32.9-0.1 33.8-0.1 67.6c-9.6-2.4-18.9-5.5-28.2-8.7q-2.3-0.8-4.6-1.5-5.6-1.9-11.2-3.8 0-1.2 0-2.5-0.1-30.1-0.2-60.2-0.1-14.5-0.1-29.1-0.1-12.6-0.1-25.3-0.1-6.7-0.1-13.4 0-6.4-0.1-12.7 0-2.3 0-4.6 0-3.2 0-6.4c0-1.7 0-1.7 0-3.5-0.6-4.6-2-8-5.5-11.2-4.3-1.6-8.3-1.8-12.9-1.1-3.6 2.1-5.5 4.1-7 8-0.3 3.3-0.3 3.3-0.3 7.1q0 1.1 0 2.2 0 3.6 0 7.2 0 2.6 0 5.2-0.1 7-0.1 14 0 7.4-0.1 14.7 0 13.9-0.1 27.8 0 15.9-0.1 31.7-0.2 32.5-0.3 65.1c-8.5-1-8.5-1-12.2-2.2-1.1-0.4-1.1-0.4-2.2-0.7-1.1-0.4-1.1-0.4-2.2-0.8-1.2-0.4-1.2-0.4-2.4-0.8q-2.5-0.8-4.9-1.6-3.8-1.3-7.6-2.6-2.4-0.8-4.8-1.6c-1.1-0.4-1.1-0.4-2.3-0.8-5.3-1.8-5.3-1.8-6.4-2.9q-0.1-3.1-0.1-6.2 0-1 0-2 0-3.4 0-6.7 0-2.4 0-4.7 0-5.2 0-10.3 0-8.1-0.1-16.3 0-1.3 0-2.7 0-2.8 0-5.6 0-19-0.1-37.9 0.1-12.7 0-25.5 0-6.7 0-13.5 0-6.3 0-12.7-0.1-2.3 0-4.7c0.4-9.1 0.4-9.1-3.1-17.1-4.1-3.3-6.9-3.5-12-3.5-4.2 0.6-5.8 2.4-8.6 5.4-1.5 3-1.1 5.6-1.2 8.9q0 1.1 0 2.2 0 3.6 0 7.3 0 2.6 0 5.2-0.1 7.1-0.1 14.1 0 7.4-0.1 14.8-0.1 14-0.1 28-0.1 16-0.2 31.9-0.1 32.8-0.3 65.6c-3.3 1.1-4 0.9-7.2-0.2q-1.3-0.4-2.5-0.8-1.4-0.5-2.8-1-1.4-0.4-2.8-0.9-4.4-1.5-8.9-3-3-1.1-6-2.1-7.4-2.5-14.8-5-0.1-32.4-0.2-64.7 0-15 0-30-0.1-13.1-0.1-26.2 0-7 0-13.9 0-6.5 0-13.1 0-2.4-0.1-4.7c-0.1-17.8 3.6-33.1 16.2-46.3 22.5-20.9 50.4-22.1 76.2-7.1z"/>
	<path class="s3" d="m2264.2 259.2c4 1.1 7-0.2 10.8-1.7q1.1-0.4 2.3-0.8 3.6-1.3 7.3-2.6 3.6-1.4 7.2-2.7 2.3-0.8 4.5-1.6c3.7-1.4 6-2 9.7-0.8q0 33.4 0.1 66.8 0 15.6 0 31.1 0 13.5 0 27 0 7.2 0 14.3 0 6.8 0 13.5 0 2.5 0 4.9 0 3.4 0 6.8c0 1.9 0 1.9 0 3.8-0.1 2.8-0.1 2.8-1.1 3.8q-2 0.1-4 0.1-1.3 0-2.6 0-1.4 0-2.9 0c-1.4 0-1.4 0-2.8 0q-3.1 0-6.1 0-4.6 0-9.3 0-2.9 0-5.8 0-1.4 0-2.9 0-1.2 0-2.6 0-1.1 0-2.3 0c-1.7-0.1-1.7-0.1-2.7-1.1q-0.1-2.3-0.1-4.6 0.1-1.2 0.1-2.5 0-0.9 0-1.9c-1.3 0.6-1.3 0.6-2.6 1.2-12.1 5.4-23.2 8.2-36.4 8.8q-1.5 0.1-3 0.2c-20.8 1-41.2-7.5-56.7-21.1q-1.1-1-2.3-2.1-0.9-0.8-1.9-1.6c-15.7-14.6-24.5-35.2-25.4-56.3-0.7-26.1 6.5-47.4 24.4-66.7 10.2-10.5 22.2-17.5 35.9-22.4q1.4-0.5 2.9-1c22.4-6.6 48.2-2.1 68.3 9.2z"/>
	<path class="s3" d="m462 120q2 0 4 0 0.4 1.6 0.7 3.2 0.5 2.2 1.1 4.4 0.2 1 0.4 2c1.2 4.9 2.4 9.7 3.7 14.4 2 7.5 3.7 15.1 5.4 22.6q4.1 19 8.7 37.9c3 12.2 5.8 24.5 8.5 36.8q3.9 17.5 8.1 34.8 3.8 15.3 7.1 30.7c1.9 8.7 4 17.4 6.2 26.1q4.3 17.5 8.1 35.1 3.8 17.3 8 34.5 4.4 18 8.4 36.1 0.3 1.1 0.6 2.3 0.7 3.3 1.4 6.6 0.4 1.9 0.9 3.8c0.7 3.9 1.3 7.7 1.7 11.7-1 1-1 1-3.1 1.1-1.3 0-1.3 0-2.7 0q-1.5 0-3.1 0-1.6 0-3.4 0-1.6 0-3.4 0-5.4 0-10.9 0-3.6 0-7.3-0.1-9.1 0-18.1 0c-4.8-16.7-8.4-33.7-11.9-50.6-1.9-9-3.9-18-6.1-26.9-2.5-10.2-4.7-20.5-6.9-30.8q-3.6-17.2-7.7-34.4c-3.2-13.3-5.7-26.7-7.6-40.2q-0.3-1.9-0.5-3.9-0.7-4.6-1.3-9.2-0.3 0.9-0.5 1.8c-4.6 15-10.4 29-17.4 43-2.6 5.1-5.1 10.3-7.6 15.4-8.4 17.4-16.9 34.8-25.6 52.1-3.6 7.1-7.1 14.3-10.5 21.5-4.4 9.2-8.9 18.3-13.5 27.4q-8.7 17.3-16.9 34.8-0.5 0-1 0-0.7-21.6-1-43.2-0.1-10.1-0.4-20.1c-1.1-33.8 0.8-59.9 18-89.5 3.6-6.1 6.4-12.6 9.2-19.1q2.2-5 4.5-10 0.5-1.1 1-2.2 5.5-12 11-24 0.5-1.1 1-2.2 5.5-12 11-24 7.4-16.3 14.8-32.6 5.5-12 11-24c8.1-17.7 16.1-35.3 23.9-53.1z"/>
	<path class="s3" d="m235 120c1.9 0.3 1.9 0.3 4 1 1.5 2.5 2.7 4.8 3.9 7.4q0.5 1.2 1.1 2.3 1.7 3.8 3.4 7.6 1.3 2.6 2.5 5.3 3 6.5 6 13 2.3 5 4.6 10 3.1 6.6 6.2 13.3c3.5 7.5 7 15 10.6 22.5 5.1 10.9 10.2 21.8 15.1 32.9 4.5 10.3 9.4 20.4 14.3 30.5 7.3 15 14.3 30.1 21.3 45.2q0.7 1.5 1.4 3.1 2 4.3 4 8.6 0.5 1.2 1.1 2.4 1.1 2.4 2.1 4.9 1.5 3.2 3.1 6.3c6.6 13.2 6.2 26.1 6 40.5q0 3.8 0 7.7-0.1 9-0.2 17.9-0.1 10.3-0.1 20.5-0.2 21.1-0.4 42.1c-1.9-2.5-3.5-4.8-4.9-7.7q-0.5-1-1.1-2.1-0.5-1.1-1.1-2.3-0.5-1.2-1.1-2.4-1.9-3.9-3.8-7.8-1.3-2.7-2.6-5.4-7.9-16.3-15.7-32.7-4.8-10.1-9.7-20.1-6.9-14.4-13.8-28.8-4.6-9.5-9.2-19-4.5-9.3-9-18.7-0.5-1-1-2c-15.4-32.2-15.4-32.2-21-49-0.1 1.2-0.1 1.2-0.3 2.4-2.1 17.2-5.4 34.3-9.8 51.1-1.8 7.2-3.3 14.5-4.7 21.7-2.3 11.8-4.9 23.5-7.6 35.2q-0.4 2-0.9 4-0.2 0.9-0.4 1.9c-2 8.7-3.8 17.3-5.7 26q-0.9 4.1-1.8 8.2c-3.4 15.5-6.6 31-9.8 46.5q-10.9 0-21.7 0.1-3.7 0-7.4 0-5.3 0-10.6 0-1.7 0-3.4 0c-1.5 0-1.5 0-3.1 0-1.4 0-1.4 0-2.7 0-2.1-0.1-2.1-0.1-3.1-1.1 0.5-7.3 2.1-14.3 3.7-21.4q0.8-3.6 1.6-7.2c0.4-1.9 0.4-1.9 0.9-3.7q1.5-6.9 3-13.7c2.6-11.9 5.4-23.7 8.1-35.5 4-17.1 7.9-34.3 11.7-51.4q1-4.6 2-9.2 0.3-1.1 0.5-2.3 3.9-17.3 7.9-34.6c4-16.8 7.8-33.6 11.5-50.4q0.9-4.4 1.9-8.9 0.3-1.1 0.5-2.2c3-13.7 6.2-27.3 9.4-41q4.7-20.1 9.1-40.3c1.5-7.2 3.2-14.2 5.2-21.2z"/>
	<path class="s4" d="m756 395c20.1 0 40.3 0 61 0 0 107.6 0 215.2 0 326-20.4-6.6-40.7-13.2-61-20 0-37.3 0-74.6 0-113-29.7 0-59.4 0-90 0 0-20.1 0-40.3 0-61 29.7 0 59.4 0 90 0 0-43.6 0-87.1 0-132z"/>
	<path class="s3" d="m1703 191c14.5 0 29 0 44 0 0 30.7 0 61.4 0 93 23.1 0 46.2 0 70 0 0-30.7 0-61.4 0-93 14.5 0 29 0 44 0 0 75.9 0 151.8 0 230-14.8-4-29.4-9.1-44-14 0-26.1 0-52.1 0-79-23.1 0-46.2 0-70 0 0 30.7 0 61.4 0 93-14.8-4-29.4-9.1-44-14 0-71.3 0-142.6 0-216z"/>
	<path class="s3" d="m1525 248c0 1.7 0 1.7 0 3.4q0.1 16.2 0.2 32.4 0 8.3 0.1 16.6 0 8 0.1 16 0 3.1 0 6.1c0 16.1 1.3 29.1 12.6 41.5 8.9 7.9 18.9 11.8 30.7 11.3 12.5-1.2 22.5-5.5 30.7-15.1 3.6-4.7 5.9-9.6 7.6-15.2q0.3-0.8 0.5-1.7c0.7-3.3 0.7-6.6 0.7-10q0-1.2 0-2.3 0.1-3.9 0.1-7.7 0-2.6 0.1-5.3 0.1-6.9 0.1-13.9 0.1-7.1 0.2-14.2 0.2-14 0.3-27.9 8.7-3 17.4-6 2.9-1 5.9-2 4.2-1.5 8.4-2.9c1.4-0.5 1.4-0.5 2.7-1q1.2-0.4 2.5-0.8 1.1-0.4 2.2-0.8c1.9-0.5 1.9-0.5 4.9-0.5q0.2 35.4 0.3 70.8 0 16.4 0.1 32.9 0.1 14.3 0.1 28.7 0 7.5 0 15.1 0.1 7.2 0.1 14.3 0 2.6 0 5.3c0.2 14.7-2 28.1-11.6 39.9q-1 1.2-2 2.5c-9.2 10.9-21.8 18.4-36 20.5-5.1 0.3-10.2 0.2-15.3 0.2q-2.2 0-4.4 0-5.8 0-11.5-0.1-5.9 0-11.8 0-11.5 0-23-0.1c0.6-5.9 1.8-11 3.7-16.6 0.4-1.2 0.4-1.2 0.8-2.4q0.8-2.5 1.6-4.9 1.3-3.8 2.6-7.6 0.8-2.4 1.6-4.8 0.4-1.1 0.8-2.3c1.8-5.3 1.8-5.3 2.9-6.4q2.2-0.1 4.4-0.1 1.4 0 2.9 0c1.5 0 1.5 0 3.1 0q3.2-0.1 6.5-0.1 5.1 0 10.2-0.1 4.9 0 9.8 0c1.6 0 1.6 0 3.1 0 4.6-0.1 8-0.1 11.6-3.1 4-4.3 4.6-7.1 5-12.8 0.1-1.7 0.1-1.7 0.3-3.3q0-1.2 0.1-2.5-1.3 0.6-2.7 1.2c-24 10.2-47.8 12.4-72.6 2.9-9.4-3.9-17.2-9.2-24.7-16.1q-1.3-1.1-2.6-2.3c-14.5-13.6-24.8-33.2-25.7-53.3-0.1-5.2 0-10.4 0-15.6q0-2.8 0-5.7 0-7.5 0.1-14.9 0-7.7 0.1-15.3 0-15 0.1-29.9 8.7-3 17.4-6 2.9-1 5.9-2 4.2-1.5 8.4-2.9 1.4-0.5 2.7-1 1.2-0.4 2.5-0.8 1.1-0.4 2.2-0.8c1.9-0.5 1.9-0.5 4.9-0.5z"/>
	<path class="s4" d="m593 395c20.1 0 40.3 0 61 0 0 107.3 0 214.5 0 325-21.1-3-40.8-12.3-61-19 0-101 0-202 0-306z"/>
	<path class="s5" d="m2046 262.1c2.4 1.9 4.7 3.8 7 5.9 1 0.8 1 0.8 2.1 1.7 14.1 11.6 22.7 27.7 26.9 45.3q0.3 1.2 0.6 2.4c1.5 7.4 1.7 14.6 1.6 22.2q0 3.1 0 6.2c-0.1 10.1-0.1 10.1-1.2 11.2q-2.2 0.1-4.5 0.1-1.4 0-2.9 0-1.6 0-3.3 0c-1.7 0-1.7 0-3.4 0q-5.6 0-11.2 0-3.8 0-7.7 0-9.1 0-18.3 0-10.4 0-20.8 0-21.5-0.1-42.9-0.1c1-8.5 1-8.5 2.2-12.2q0.4-1.1 0.7-2.2 0.4-1.1 0.8-2.2 0.4-1.2 0.8-2.4 0.8-2.5 1.6-4.9 1.3-3.8 2.6-7.6 0.8-2.4 1.6-4.8 0.4-1.1 0.8-2.3c1.8-5.3 1.8-5.3 2.9-6.4q2.3-0.2 4.6-0.2 1.5 0 3-0.1 1.6 0 3.2 0 1.6 0 3.3-0.1 5.2-0.1 10.5-0.2 3.5 0 7-0.1 8.7-0.2 17.4-0.3-1.7-1.9-3.4-3.9c-0.9-1.1-0.9-1.1-1.8-2.2-1.9-2.1-3.8-3.7-6.2-5.2-1.1-0.7-1.1-0.7-2.1-1.4-6.8-3.6-12.7-4.8-20.4-4.7q-1.3 0-2.7 0c-10.9 0.3-18.4 3.9-26.4 11.4-9.3 9.9-11.6 19-11.5 32.3 0.3 6.6 0.9 12.1 4.5 17.7q0.8 1.3 1.7 2.6c6.1 8.4 14.4 14.4 24.6 17 10.7 1.7 20.5 0.6 30.1-4.4 2.6-1.2 2.6-1.2 5.6-0.2 1.2 1.4 1.2 1.4 2.5 3.3q0.6 1.1 1.3 2.1 0.8 1.2 1.5 2.4 0.8 1.1 1.6 2.3 2.4 3.7 4.8 7.5 1.6 2.5 3.3 5 4 6.2 8 12.4c-11.6 12-31.3 15.8-47.5 16.3-23.2 0.3-44.2-8-61.1-23.9q-1.2-1.2-2.4-2.4-1.2-1.1-2.3-2.3c-17.8-18.5-22.4-40.8-22-65.6 0.2-8 1.3-14.7 4.3-22.1q0.4-1 0.8-2.1c3.9-9.3 8.3-17.5 15.2-24.9q1.3-1.5 2.7-3c28.9-30.9 77-37 112.3-12.9z"/>
	<path class="s3" d="m2341 191c9.6 2.4 18.9 5.5 28.2 8.7 7.8 2.6 7.8 2.6 15.8 5.3 0 14.2 0 28.4 0 43 18.8 0 37.6 0 57 0 0 7.2 0 14.5 0.1 21.9 0 2.3 0 4.6 0 7q0 2.7 0 5.4 0 1.4 0 2.8c0 1.4 0 1.4 0 2.7q0 1.2 0 2.4c-0.1 1.8-0.1 1.8-1.1 2.8q-2.6 0.1-5.3 0.1-1.6 0-3.4 0c-1.8 0-1.8 0-3.6 0q-1.9 0-3.8 0-5 0-9.9 0-5.1 0-10.1-0.1-10 0-19.9 0 0.1 9.7 0.3 19.4 0 3.3 0 6.6c0.1 24.6 0.1 24.6 12.7 45 4.2 4 8.6 6.8 14 9q1.2 0.5 2.5 1.1c5.2 1.4 10.5 1.4 15.9 1.5 1.7 0.1 1.7 0.1 3.4 0.1q4.1 0.2 8.2 0.3 3 8.6 6 17.3 1.1 2.9 2.1 5.9 1.5 4.2 2.9 8.4 0.5 1.3 1 2.7 0.4 1.2 0.8 2.5 0.4 1.1 0.8 2.2c0.5 2.3 0.1 3.8-0.6 6q-7.8 0.1-15.7 0.2-2.6 0-5.3 0.1c-15.1 0.3-30.9-0.5-44.4-8q-1-0.6-2-1.1c-20.2-11-36.2-28.2-43.6-50.2q-1.7-5.9-3-12c-0.3-1.1-0.3-1.1-0.5-2.3-0.6-3.1-0.6-6-0.6-9.1q0-1.9 0-3.9 0-2.2 0-4.3 0-2.3 0-4.5 0-6.1 0-12.3 0-6.4 0-12.8 0-10.7 0-21.5 0-12.4 0-24.9 0-10.7 0-21.3 0-6.4 0-12.8 0-6 0-12 0-2.2 0-4.4 0-3 0-6 0-1.7 0-3.4c0.1-2.5 0.1-2.5 1.1-3.5z"/>
	<path class="s6" d="m1114 79c4 0 7.9 0 12 0q0 82.9 0.1 165.8 0 4.7 0 9.5c0 97.1 0 194.2-0.6 349.2q0 3.3 0 6.5-0.2 52.5-0.5 105c-3.6 0-7.3 0-11 0 0-209.9 0-419.8 0-636z"/>
	<path class="s7" d="m2241 298c9.7 7.3 17.3 16 20 28 1.4 14.4-1.6 25.7-10.6 37-7.6 8.3-17.6 12.4-28.7 13.3-13.1 0.4-22.9-3.5-32.7-12.3-2.8-3.1-4.9-6.4-7-10q-0.6-1.1-1.3-2.2c-4.6-9-4-21.3-2-31 4.1-11.5 13.9-20.9 24.7-26.3 11.6-4.1 27.2-3.2 37.6 3.5z"/>
	<path class="s8" d="m1511.6 530.1c8.5 5 13.3 11.6 16.4 20.9 0.3 4.5 0.3 8.9 0.3 13.4q0 2.2 0.1 4.4c0.1 8.4 0.2 15.8-4.4 23.2q-0.6 1.1-1.3 2.2c-3.9 6.4-9.7 9.7-16.7 11.8-8.2 1.3-17.1 1.4-24.1-3.5-1-0.7-1-0.7-1.9-1.5q-1-0.8-1.9-1.6c-6.5-5.9-9.8-12.7-10.3-21.4q-0.1-5.3-0.1-10.6-0.1-1.8-0.1-3.7c-0.1-11.4 2.1-20.5 10.2-28.8 9.3-8 22.4-10.1 33.8-4.8z"/>
	<path class="s9" d="m1435.5 529.9c9 5.5 14 13 16.5 23.1 0.5 4.9 0.6 9.7 0.5 14.6q0 1.8 0 3.7c0 9.8-1.9 18.2-7.9 26.1-6.2 6.2-13.2 8.8-21.8 8.9q-1.1 0-2.2 0c-8.6 0.1-15.5-3.3-21.6-9.3-2-2.9-3.6-5.8-5-9q-0.5-1.1-1-2.2c-1.8-5.1-1.4-10.5-1.4-15.8q-0.1-3.1-0.1-6.2c-0.2-10.4 1.6-19.7 8.7-27.7 9.8-8.6 23-11.6 35.3-6.2z"/>
	<path class="s10" d="m1321 528c5.3 0 10.6 0 16 0 0 10.2 0 20.5 0 31 7.6 0 15.2 0 23 0 0-10.2 0-20.5 0-31 5 0 9.9 0 15 0 0 25.7 0 51.5 0 78-7-1-7-1-15-4 0-8.9 0-17.8 0-27-7.9 0-15.8 0-24 0 0 10.2 0 20.5 0 31-7-1-7-1-15-4 0-24.4 0-48.8 0-74z"/>
	<path class="s10" d="m1567.8 527.8c1.2 0 1.2 0 2.3 0q3.6 0 7.2 0.1 2.4 0 4.8 0 6 0 11.9 0.1 1 2.3 1.9 4.7c0.6 1.3 0.6 1.3 1.1 2.6 1 2.6 1.5 5 2 7.7q-1.6 0-3.2 0-5.8 0.1-11.6 0.3-2.5 0-5 0-3.6 0.1-7.3 0.2-1.1 0-2.2 0c-4.1 0.1-4.1 0.1-7.7 1.9-1.3 2-1.4 3.2-1.3 5.6q0 1 0 2.1c0.2 2.2 0.2 2.2 2.3 4.9 2.9 0.3 5.6 0.4 8.5 0.4 9.4 0.3 16.3 1.9 23 9 5.1 6.6 5.4 14.5 4.5 22.6-1.7 6.2-5.7 10.6-11 14-5.2 2.6-8.8 3.4-14.7 3.3q-1 0-2.1 0-3.3 0-6.6-0.1-2.3 0-4.6-0.1-5.5 0-11-0.1-1-3.2-2-6.3-0.6-1.8-1.1-3.6c-0.9-3.1-0.9-3.1-0.9-6.1q1.6 0 3.2 0 5.8-0.1 11.6-0.2 2.5 0 5-0.1 3.6 0 7.3-0.1c1.1 0 1.1 0 2.2 0 4.3-0.1 4.3-0.1 7.7-2.5 1.4-2.9 1.4-4.9 1-8.1-0.9-2.3-0.9-2.3-3-4-2.8-0.4-5.4-0.6-8.2-0.6-9.2-0.3-16-1.3-22.8-8.4-5-7.2-5.1-15.6-4-24 2.3-6.4 7.1-10.4 12.7-14.1 3.3-1.3 6.6-1.1 10.1-1.1z"/>
	<path class="s11" d="m1294 534q0 1 0 2 0.9 0.3 1.8 0.6c4.5 2.8 6.4 8.6 8.2 13.4 0.4 2.9 0.3 5.1 0 8q-2.9 1-5.8 2-1.6 0.6-3.3 1.1c-2.9 0.9-2.9 0.9-5.9 0.9q-0.1-1.1-0.3-2.2c-0.9-6.4-0.9-6.4-4.1-11.9-4.7-3.5-7.5-4.5-13.6-3.9-4.8 1.8-7.8 4.3-10 9-0.5 3-0.5 3-0.4 6.2q0 1.7 0 3.5 0 1.9 0 3.7 0 1.9 0 3.7 0 1.8 0 3.6 0 1.6 0 3.2c0.6 4.9 2.4 8.2 6 11.5 4.4 2.1 7.7 2.4 12.4 1.6 4.6-2 6.4-4.3 8.4-8.8q0.8-2 1.6-4.2c5 0 9.9 0 15 0-0.3 9.6-3.2 16.6-10.2 23.4-6 4.6-13.8 7.4-21.5 7-8.9-1.5-16.7-5.2-22.3-12.4-5-8.1-5.7-15.8-5.5-25q0-3.2 0-6.4c0-10.2 1.1-18.6 7.6-26.7 12.1-12 28-11.4 41.9-2.9z"/>
	<path class="s12" d="m1616 528c17.8 0 35.6 0 54 0 0 5 0 9.9 0 15-12.9 0-25.7 0-39 0 0 15.8 0 31.7 0 48 13.2 0 26.4 0 40 0 0 5.3 0 10.6 0 16-18.2 0-36.3 0-55 0 0-26.1 0-52.1 0-79z"/>
	<path class="s13" d="m1875 528c17.8 0 35.6 0 54 0 0 5 0 9.9 0 15-12.9 0-25.7 0-39 0 0 15.8 0 31.7 0 48 12.9 0 25.7 0 39 0 0 5.3 0 10.6 0 16-17.8 0-35.6 0-54 0 0-26.1 0-52.1 0-79z"/>
	<path class="s14" d="m1843 527.9q1.6 0 3.3 0 1.7 0 3.5 0 1.8 0 3.6 0.1 4.3 0 8.6 0c-0.6 5.5-1.9 9.9-4 15q-1.9 0-3.9 0.1-2.6 0.1-5.2 0.2-1.3 0-2.6 0c-6.5 0.2-10.5 1.7-15.1 6.6-1.5 2.4-1.5 2.4-2.2 7.1 9.6 0 19.1 0 29 0 0 5.3 0 10.6 0 16-9.6 0-19.1 0-29 0 0 9.6 0 19.1 0 29-12 4-12 4-16 4q-0.2-11.5-0.2-23 0-3.9-0.1-7.8-0.1-5.7-0.1-11.3 0-1.7-0.1-3.5c0-10.1 2.7-17.2 9.6-24.6 6.4-6 12.2-7.9 20.9-7.9z"/>
	<path class="s15" d="m1719 528c5.7 1.1 10.7 2.5 16 5 0 0.9 0 0.9 0 1.8q0.1 9.2 0.3 18.4 0 3.5 0 6.9 0.1 5 0.2 9.9 0 1.5 0 3.1c0.1 6.6 1 10.2 5.5 15.2 4.4 2.5 8.4 2.4 13.3 2.5 1.4 0 1.4 0 2.8 0q3.5 0.1 6.9 0.2c0 5.3 0 10.6 0 16-24.9 0.4-24.9 0.4-34-7-6.4-6.2-10.7-12.6-11.1-21.6q0-1.4 0-2.8 0-1.6 0-3.2 0-1.7 0-3.5 0-1.7 0-3.5 0-5.6 0-11.2 0-3.8 0.1-7.6 0-9.3 0-18.6z"/>
	<path class="s16" d="m1501 543c4.8 1.7 8.8 4.3 11 9 0.6 4.3 0.7 8.6 0.6 12.9q0 3.1 0 6.2c-0.1 7-0.1 11.2-4.6 16.9-3.7 3.3-7.6 3.7-12.4 3.6-4.6-1-7.7-4-10.6-7.6-1.8-5.4-1.3-11.2-1.3-16.8q-0.1-1.9-0.1-3.9c-0.1-11.6-0.1-11.6 4.4-16.3 4.4-3.7 7.3-4.7 13-4z"/>
	<path class="s17" d="m1426 543c4.4 2.3 7.3 4.9 10 9 0.5 3.2 0.5 3.2 0.5 6.7q0 1.9 0 3.8 0 2-0.1 4 0 2 0.1 4c-0.1 7.6-0.4 12-5.5 17.8-3.4 3-7.2 3.2-11.6 3.2-4.5-0.9-7.5-4.1-10.4-7.5-1.6-4.9-1.3-10.1-1.4-15.2q-0.1-3-0.2-6c-0.1-10.9-0.1-10.9 3.4-15.1 4.4-4.3 9.1-5.7 15.2-4.7z"/>
	<path class="s1" d="m1796 528c0 25.7 0 51.5 0 78-5 0-9.9 0-15 0 0-24.4 0-48.8 0-74 12-4 12-4 15-4z"/>
	<path class="s1" d="m1946 528c4.9 0 9.9 0 15 0 0 19.5 0 38.9 0 59-4.9 0-9.9 0-15 0 0-19.5 0-38.9 0-59z"/>
	<path class="s18" d="m1633 559c10.9 0 21.8 0 33 0 0 5.3 0 10.6 0 16-9.2 0-18.5 0-28 0-0.8-2.3-1.7-4.5-2.5-6.9q-0.4-1-0.8-2.1c-1.7-4.8-1.7-4.8-1.7-7z"/>
	<path class="s19" d="m1892 559c10.6 0 21.1 0 32 0 0 5.3 0 10.6 0 16-8.9 0-17.8 0-27 0-4-10-4-10-5-16z"/>
	<path class="s1" d="m1946 591c4.9 0 9.9 0 15 0 0 5 0 9.9 0 15-4.9 0-9.9 0-15 0 0-5 0-9.9 0-15z"/>
</svg>